<svg width="161" height="54" viewBox="0 0 161 54" fill="none" xmlns="http://www.w3.org/2000/svg">
<rect width="161" height="54" rx="27" fill="#D3E97A"/>
<path d="M29.992 33.24C28.84 33.24 27.8533 32.9893 27.032 32.488C26.2107 31.9813 25.5787 31.2773 25.136 30.376C24.6987 29.4747 24.48 28.4293 24.48 27.24C24.48 26.0507 24.6987 25.0053 25.136 24.104C25.5787 23.2027 26.2107 22.5013 27.032 22C27.8533 21.4933 28.84 21.24 29.992 21.24C31.32 21.24 32.4267 21.5733 33.312 22.24C34.1973 22.9013 34.8187 23.7947 35.176 24.92L33.232 25.456C33.008 24.704 32.6267 24.1173 32.088 23.696C31.5493 23.2693 30.8507 23.056 29.992 23.056C29.2187 23.056 28.5733 23.2293 28.056 23.576C27.544 23.9227 27.1573 24.4107 26.896 25.04C26.64 25.664 26.5093 26.3973 26.504 27.24C26.504 28.0827 26.632 28.8187 26.888 29.448C27.1493 30.072 27.5387 30.5573 28.056 30.904C28.5733 31.2507 29.2187 31.424 29.992 31.424C30.8507 31.424 31.5493 31.2107 32.088 30.784C32.6267 30.3573 33.008 29.7707 33.232 29.024L35.176 29.56C34.8187 30.6853 34.1973 31.5813 33.312 32.248C32.4267 32.9093 31.32 33.24 29.992 33.24ZM41.8045 33.24C40.6525 33.24 39.6658 32.9893 38.8445 32.488C38.0232 31.9813 37.3912 31.2773 36.9485 30.376C36.5112 29.4747 36.2925 28.4293 36.2925 27.24C36.2925 26.0507 36.5112 25.0053 36.9485 24.104C37.3912 23.2027 38.0232 22.5013 38.8445 22C39.6658 21.4933 40.6525 21.24 41.8045 21.24C42.9565 21.24 43.9432 21.4933 44.7645 22C45.5912 22.5013 46.2232 23.2027 46.6605 24.104C47.1032 25.0053 47.3245 26.0507 47.3245 27.24C47.3245 28.4293 47.1032 29.4747 46.6605 30.376C46.2232 31.2773 45.5912 31.9813 44.7645 32.488C43.9432 32.9893 42.9565 33.24 41.8045 33.24ZM41.8045 31.424C42.5778 31.4293 43.2205 31.2587 43.7325 30.912C44.2498 30.5653 44.6365 30.0773 44.8925 29.448C45.1538 28.8187 45.2845 28.0827 45.2845 27.24C45.2845 26.3973 45.1538 25.6667 44.8925 25.048C44.6365 24.424 44.2498 23.9387 43.7325 23.592C43.2205 23.2453 42.5778 23.0667 41.8045 23.056C41.0312 23.0507 40.3885 23.2213 39.8765 23.568C39.3645 23.9147 38.9778 24.4027 38.7165 25.032C38.4605 25.6613 38.3325 26.3973 38.3325 27.24C38.3325 28.0827 38.4605 28.816 38.7165 29.44C38.9725 30.0587 39.3565 30.5413 39.8685 30.888C40.3858 31.2347 41.0312 31.4133 41.8045 31.424ZM48.9169 33V21.48H50.8689L56.2129 29.6V21.48H58.1649V33H56.2129L50.8689 24.88V33H48.9169ZM63.1693 33V23.288H59.4413V21.48H68.8253V23.288H65.0973V33H63.1693ZM68.9919 33L72.6239 21.48H75.4479L79.0799 33H77.0959L73.7999 22.664H74.2319L70.9759 33H68.9919ZM71.0159 30.504V28.704H77.0639V30.504H71.0159ZM82.3411 33V23.288H78.6131V21.48H87.9971V23.288H84.2691V33H82.3411ZM94.1483 33.24C92.9963 33.24 92.0096 32.9893 91.1883 32.488C90.3669 31.9813 89.7349 31.2773 89.2923 30.376C88.8549 29.4747 88.6363 28.4293 88.6363 27.24C88.6363 26.0507 88.8549 25.0053 89.2923 24.104C89.7349 23.2027 90.3669 22.5013 91.1883 22C92.0096 21.4933 92.9963 21.24 94.1483 21.24C95.3003 21.24 96.2869 21.4933 97.1083 22C97.9349 22.5013 98.5669 23.2027 99.0043 24.104C99.4469 25.0053 99.6683 26.0507 99.6683 27.24C99.6683 28.4293 99.4469 29.4747 99.0043 30.376C98.5669 31.2773 97.9349 31.9813 97.1083 32.488C96.2869 32.9893 95.3003 33.24 94.1483 33.24ZM94.1483 31.424C94.9216 31.4293 95.5643 31.2587 96.0763 30.912C96.5936 30.5653 96.9803 30.0773 97.2363 29.448C97.4976 28.8187 97.6283 28.0827 97.6283 27.24C97.6283 26.3973 97.4976 25.6667 97.2363 25.048C96.9803 24.424 96.5936 23.9387 96.0763 23.592C95.5643 23.2453 94.9216 23.0667 94.1483 23.056C93.3749 23.0507 92.7323 23.2213 92.2203 23.568C91.7083 23.9147 91.3216 24.4027 91.0603 25.032C90.8043 25.6613 90.6763 26.3973 90.6763 27.24C90.6763 28.0827 90.8043 28.816 91.0603 29.44C91.3163 30.0587 91.7003 30.5413 92.2123 30.888C92.7296 31.2347 93.3749 31.4133 94.1483 31.424Z" fill="#0A0A0A"/>
<circle cx="134" cy="27" r="5" fill="#0A0A0A"/>
</svg>
