<svg width="193" height="24" viewBox="0 0 193 24" fill="none" xmlns="http://www.w3.org/2000/svg">
<path d="M0.28 12.984V10.616L10.072 6.392V8.952L3.32 11.8L10.072 14.648V17.208L0.28 12.984ZM178.164 0.599998H181.204L172.372 23H169.332L178.164 0.599998ZM182.889 14.648L189.641 11.8L182.889 8.952V6.392L192.681 10.616V12.984L182.889 17.208V14.648Z" fill="#D3E97A"/>
<path d="M15.5565 3.8H11.8765V0.599998H22.7565V3.8H19.0765V23H15.5565V3.8ZM24.1408 0.599998H27.6608V9.72H31.4368V0.599998H34.9568V23H31.4368V12.92H27.6608V23H24.1408V0.599998ZM37.2583 0.599998H40.7783V23H37.2583V0.599998ZM45.8145 0.599998H50.5825L54.2305 23H50.7105L50.0705 18.552V18.616H46.0705L45.4305 23H42.1665L45.8145 0.599998ZM49.6545 15.576L48.0865 4.504H48.0225L46.4865 15.576H49.6545ZM60.5478 23.32C58.8411 23.32 57.5398 22.84 56.6438 21.88C55.7478 20.8987 55.2998 19.5013 55.2998 17.688V5.912C55.2998 4.09867 55.7478 2.712 56.6438 1.752C57.5398 0.770665 58.8411 0.279999 60.5478 0.279999C62.2544 0.279999 63.5558 0.770665 64.4518 1.752C65.3478 2.712 65.7958 4.09867 65.7958 5.912V7.832H62.4678V5.688C62.4678 4.216 61.8598 3.48 60.6438 3.48C59.4278 3.48 58.8198 4.216 58.8198 5.688V17.944C58.8198 19.3947 59.4278 20.12 60.6438 20.12C61.8598 20.12 62.4678 19.3947 62.4678 17.944V13.56H60.7078V10.36H65.7958V17.688C65.7958 19.5013 65.3478 20.8987 64.4518 21.88C63.5558 22.84 62.2544 23.32 60.5478 23.32ZM72.8238 23.32C71.0958 23.32 69.7731 22.8293 68.8558 21.848C67.9384 20.8667 67.4798 19.48 67.4798 17.688V5.912C67.4798 4.12 67.9384 2.73333 68.8558 1.752C69.7731 0.770665 71.0958 0.279999 72.8238 0.279999C74.5518 0.279999 75.8744 0.770665 76.7918 1.752C77.7091 2.73333 78.1678 4.12 78.1678 5.912V17.688C78.1678 19.48 77.7091 20.8667 76.7918 21.848C75.8744 22.8293 74.5518 23.32 72.8238 23.32ZM72.8238 20.12C74.0398 20.12 74.6478 19.384 74.6478 17.912V5.688C74.6478 4.216 74.0398 3.48 72.8238 3.48C71.6078 3.48 70.9998 4.216 70.9998 5.688V17.912C70.9998 19.384 71.6078 20.12 72.8238 20.12ZM85.0333 0.599998H90.3453C92.1586 0.599998 93.4813 1.02667 94.3133 1.88C95.1453 2.712 95.5613 4.00267 95.5613 5.752V6.648C95.5613 7.8 95.3693 8.73867 94.9853 9.464C94.6226 10.1893 94.0573 10.712 93.2893 11.032V11.096C95.0386 11.6933 95.9133 13.2507 95.9133 15.768V17.688C95.9133 19.416 95.4546 20.7387 94.5373 21.656C93.6413 22.552 92.3186 23 90.5693 23H85.0333V0.599998ZM89.9293 9.72C90.6333 9.72 91.1559 9.53867 91.4973 9.176C91.8599 8.81333 92.0413 8.20533 92.0413 7.352V6.104C92.0413 5.29333 91.8919 4.70667 91.5933 4.344C91.3159 3.98133 90.8679 3.8 90.2493 3.8H88.5533V9.72H89.9293ZM90.5693 19.8C91.1879 19.8 91.6466 19.64 91.9453 19.32C92.2439 18.9787 92.3933 18.4027 92.3933 17.592V15.64C92.3933 14.616 92.2119 13.912 91.8493 13.528C91.5079 13.1227 90.9319 12.92 90.1213 12.92H88.5533V19.8H90.5693ZM100.371 0.599998H105.139L108.787 23H105.267L104.627 18.552V18.616H100.627L99.9868 23H96.7228L100.371 0.599998ZM104.211 15.576L102.643 4.504H102.579L101.043 15.576H104.211ZM110.175 0.599998H115.391C117.204 0.599998 118.527 1.02667 119.359 1.88C120.191 2.712 120.607 4.00267 120.607 5.752V7.128C120.607 9.45333 119.839 10.9253 118.303 11.544V11.608C119.156 11.864 119.753 12.3867 120.095 13.176C120.457 13.9653 120.639 15.0213 120.639 16.344V20.28C120.639 20.92 120.66 21.4427 120.703 21.848C120.745 22.232 120.852 22.616 121.023 23H117.439C117.311 22.6373 117.225 22.296 117.183 21.976C117.14 21.656 117.119 21.08 117.119 20.248V16.152C117.119 15.128 116.948 14.4133 116.607 14.008C116.287 13.6027 115.721 13.4 114.911 13.4H113.695V23H110.175V0.599998ZM114.975 10.2C115.679 10.2 116.201 10.0187 116.543 9.656C116.905 9.29333 117.087 8.68533 117.087 7.832V6.104C117.087 5.29333 116.937 4.70667 116.639 4.344C116.361 3.98133 115.913 3.8 115.295 3.8H113.695V10.2H114.975ZM122.761 0.599998H127.977C129.79 0.599998 131.113 1.02667 131.945 1.88C132.777 2.712 133.193 4.00267 133.193 5.752V7.128C133.193 9.45333 132.425 10.9253 130.889 11.544V11.608C131.742 11.864 132.339 12.3867 132.681 13.176C133.043 13.9653 133.225 15.0213 133.225 16.344V20.28C133.225 20.92 133.246 21.4427 133.289 21.848C133.331 22.232 133.438 22.616 133.609 23H130.025C129.897 22.6373 129.811 22.296 129.769 21.976C129.726 21.656 129.705 21.08 129.705 20.248V16.152C129.705 15.128 129.534 14.4133 129.193 14.008C128.873 13.6027 128.307 13.4 127.497 13.4H126.281V23H122.761V0.599998ZM127.561 10.2C128.265 10.2 128.787 10.0187 129.129 9.656C129.491 9.29333 129.673 8.68533 129.673 7.832V6.104C129.673 5.29333 129.523 4.70667 129.225 4.344C128.947 3.98133 128.499 3.8 127.881 3.8H126.281V10.2H127.561ZM135.347 0.599998H144.947V3.8H138.867V9.72H143.699V12.92H138.867V19.8H144.947V23H135.347V0.599998ZM149.404 3.8H145.724V0.599998H156.604V3.8H152.924V23H149.404V3.8ZM162.951 23.32C161.223 23.32 159.901 22.8293 158.983 21.848C158.066 20.8667 157.607 19.48 157.607 17.688V5.912C157.607 4.12 158.066 2.73333 158.983 1.752C159.901 0.770665 161.223 0.279999 162.951 0.279999C164.679 0.279999 166.002 0.770665 166.919 1.752C167.837 2.73333 168.295 4.12 168.295 5.912V17.688C168.295 19.48 167.837 20.8667 166.919 21.848C166.002 22.8293 164.679 23.32 162.951 23.32ZM162.951 20.12C164.167 20.12 164.775 19.384 164.775 17.912V5.688C164.775 4.216 164.167 3.48 162.951 3.48C161.735 3.48 161.127 4.216 161.127 5.688V17.912C161.127 19.384 161.735 20.12 162.951 20.12Z" fill="#C7C7C7"/>
</svg>
